<svg width="13" height="18" viewBox="0 0 13 18" fill="none" xmlns="http://www.w3.org/2000/svg">
<path d="M6.83594 18H6.41855L6.33703 17.9656C6.09833 17.8565 5.89551 17.6759 5.75593 17.4481L4.18682 15.1591C3.23856 13.7791 2.2922 12.3991 1.34856 11.0192C0.74465 10.1243 0.37813 9.08202 0.286171 7.99511C0.143345 6.62524 0.425736 5.24464 1.09355 4.05199C1.76137 2.85935 2.77881 1.91734 3.99892 1.36276C6.39174 0.291394 8.72394 0.629644 10.7424 2.34047C11.9933 3.38758 12.789 4.90706 12.9513 6.562C13.1508 8.20409 12.7328 9.86378 11.7826 11.1965C10.3621 13.2665 8.94232 15.3364 7.5232 17.4064C7.37972 17.6557 7.16451 17.8518 6.90755 17.967L6.83594 18ZM6.6305 17.0614C6.68789 17.0021 6.73876 16.9367 6.78246 16.8666C8.20158 14.7967 9.62137 12.7267 11.0418 10.6567C11.8564 9.51192 12.2151 8.08738 12.0436 6.67722C11.9086 5.26422 11.2336 3.96435 10.1687 3.06685C8.40393 1.57164 6.45055 1.28857 4.36176 2.22323C3.31763 2.69962 2.44694 3.50685 1.87629 4.52831C1.30628 5.54983 1.06563 6.733 1.18955 7.90547C1.2665 8.82726 1.57563 9.71203 2.08628 10.4721C3.02541 11.852 3.97172 13.232 4.92454 14.612C5.44953 15.3754 5.97389 16.1402 6.49693 16.9064C6.53541 16.9637 6.58028 17.0156 6.6305 17.0614ZM6.61354 9.85288H6.59072C5.95289 9.83536 5.34768 9.56246 4.90229 9.09078C4.45685 8.61978 4.20642 7.98775 4.20446 7.32941C4.21229 6.66368 4.47577 6.02894 4.9362 5.56338C5.39598 5.09778 6.0162 4.83971 6.66052 4.84509C7.29769 4.86059 7.90356 5.13214 8.35028 5.60178C8.79637 6.07144 9.04811 6.70213 9.05136 7.36039C9.04549 8.02411 8.78594 8.65883 8.32941 9.12504C7.87289 9.59199 7.25587 9.85422 6.61354 9.85288ZM6.6305 5.78228C6.23007 5.78161 5.84529 5.94467 5.56028 6.23576C5.27331 6.52483 5.10963 6.92037 5.10636 7.33476C5.10701 8.18983 5.76635 8.88926 6.59397 8.91284C6.99962 8.91823 7.39092 8.75651 7.68114 8.46339C7.97136 8.16961 8.13636 7.76937 8.13961 7.35025C8.1357 6.49585 7.47374 5.79979 6.64745 5.78025H6.63049L6.6305 5.78228Z" fill="#37474F"/>
</svg>
