<svg width="22" height="24" viewBox="0 0 22 24" fill="none" xmlns="http://www.w3.org/2000/svg">
<path d="M15.8889 18.6667V17.3333H12.2222V13.3333H15.8889V16H18.3333V18.6667H17.1111V21.3333H14.6667V24H12.2222V20H14.6667V18.6667H15.8889ZM22 24H17.1111V21.3333H19.5556V18.6667H22V24ZM0 0H9.77778V10.6667H0V0ZM2.44444 2.66667V8H7.33333V2.66667H2.44444ZM12.2222 0H22V10.6667H12.2222V0ZM14.6667 2.66667V8H19.5556V2.66667H14.6667ZM0 13.3333H9.77778V24H0V13.3333ZM2.44444 16V21.3333H7.33333V16H2.44444ZM18.3333 13.3333H22V16H18.3333V13.3333ZM3.66667 4H6.11111V6.66667H3.66667V4ZM3.66667 17.3333H6.11111V20H3.66667V17.3333ZM15.8889 4H18.3333V6.66667H15.8889V4Z" fill="#387F9A"/>
</svg>
